<svg id="visual" viewBox="0 0 960 300" width="960" height="300" xmlns="http://www.w3.org/2000/svg" xmlns:xlink="http://www.w3.org/1999/xlink" version="1.1"><path d="M0 198L22.8 201.5C45.7 205 91.3 212 137 211.8C182.7 211.7 228.3 204.3 274 203.3C319.7 202.3 365.3 207.7 411.2 207.2C457 206.7 503 200.3 548.8 199.7C594.7 199 640.3 204 686 204.8C731.7 205.7 777.3 202.3 823 199.3C868.7 196.3 914.3 193.7 937.2 192.3L960 191L960 301L937.2 301C914.3 301 868.7 301 823 301C777.3 301 731.7 301 686 301C640.3 301 594.7 301 548.8 301C503 301 457 301 411.2 301C365.3 301 319.7 301 274 301C228.3 301 182.7 301 137 301C91.3 301 45.7 301 22.8 301L0 301Z" fill="#4c566a"></path><path d="M0 227L22.8 227.3C45.7 227.7 91.3 228.3 137 228.5C182.7 228.7 228.3 228.3 274 223.7C319.7 219 365.3 210 411.2 208.5C457 207 503 213 548.8 216.2C594.7 219.3 640.3 219.7 686 216.3C731.7 213 777.3 206 823 202C868.7 198 914.3 197 937.2 196.5L960 196L960 301L937.2 301C914.3 301 868.7 301 823 301C777.3 301 731.7 301 686 301C640.3 301 594.7 301 548.8 301C503 301 457 301 411.2 301C365.3 301 319.7 301 274 301C228.3 301 182.7 301 137 301C91.3 301 45.7 301 22.8 301L0 301Z" fill="#6d7688"></path><path d="M0 250L22.8 248.2C45.7 246.3 91.3 242.7 137 240.7C182.7 238.7 228.3 238.3 274 241C319.7 243.7 365.3 249.3 411.2 247.7C457 246 503 237 548.8 234.2C594.7 231.3 640.3 234.7 686 233.5C731.7 232.3 777.3 226.7 823 228.3C868.7 230 914.3 239 937.2 243.5L960 248L960 301L937.2 301C914.3 301 868.7 301 823 301C777.3 301 731.7 301 686 301C640.3 301 594.7 301 548.8 301C503 301 457 301 411.2 301C365.3 301 319.7 301 274 301C228.3 301 182.7 301 137 301C91.3 301 45.7 301 22.8 301L0 301Z" fill="#8f97a7"></path><path d="M0 245L22.8 248.7C45.7 252.3 91.3 259.7 137 261.5C182.7 263.3 228.3 259.7 274 258.7C319.7 257.7 365.3 259.3 411.2 258.2C457 257 503 253 548.8 251.8C594.7 250.7 640.3 252.3 686 255.2C731.7 258 777.3 262 823 262.8C868.7 263.7 914.3 261.3 937.2 260.2L960 259L960 301L937.2 301C914.3 301 868.7 301 823 301C777.3 301 731.7 301 686 301C640.3 301 594.7 301 548.8 301C503 301 457 301 411.2 301C365.3 301 319.7 301 274 301C228.3 301 182.7 301 137 301C91.3 301 45.7 301 22.8 301L0 301Z" fill="#b3bac8"></path><path d="M0 268L22.8 268.3C45.7 268.7 91.3 269.3 137 270.2C182.7 271 228.3 272 274 273C319.7 274 365.3 275 411.2 276C457 277 503 278 548.8 276.3C594.7 274.7 640.3 270.3 686 270.8C731.7 271.3 777.3 276.7 823 277.7C868.7 278.7 914.3 275.3 937.2 273.7L960 272L960 301L937.2 301C914.3 301 868.7 301 823 301C777.3 301 731.7 301 686 301C640.3 301 594.7 301 548.8 301C503 301 457 301 411.2 301C365.3 301 319.7 301 274 301C228.3 301 182.7 301 137 301C91.3 301 45.7 301 22.8 301L0 301Z" fill="#d8dee9"></path></svg>