<svg id="visual" viewBox="0 0 960 100" width="960" height="100" xmlns="http://www.w3.org/2000/svg" xmlns:xlink="http://www.w3.org/1999/xlink" version="1.1"><path d="M0 25L14.5 25.3C29 25.7 58 26.3 87.2 24.2C116.3 22 145.7 17 174.8 17.2C204 17.3 233 22.7 262 22.8C291 23 320 18 349 15.8C378 13.7 407 14.3 436.2 13.8C465.3 13.3 494.7 11.7 523.8 12.8C553 14 582 18 611 18.3C640 18.7 669 15.3 698 16.2C727 17 756 22 785.2 24.3C814.3 26.7 843.7 26.3 872.8 24.8C902 23.3 931 20.7 945.5 19.3L960 18L960 0L945.5 0C931 0 902 0 872.8 0C843.7 0 814.3 0 785.2 0C756 0 727 0 698 0C669 0 640 0 611 0C582 0 553 0 523.8 0C494.7 0 465.3 0 436.2 0C407 0 378 0 349 0C320 0 291 0 262 0C233 0 204 0 174.8 0C145.7 0 116.3 0 87.2 0C58 0 29 0 14.5 0L0 0Z" fill="#d8dee9"></path><path d="M0 61L14.5 58.5C29 56 58 51 87.2 48.5C116.3 46 145.7 46 174.8 47.7C204 49.3 233 52.7 262 55.8C291 59 320 62 349 62.2C378 62.3 407 59.7 436.2 55.3C465.3 51 494.7 45 523.8 44C553 43 582 47 611 46.5C640 46 669 41 698 43.2C727 45.3 756 54.7 785.2 56C814.3 57.3 843.7 50.7 872.8 48.8C902 47 931 50 945.5 51.5L960 53L960 16L945.5 17.3C931 18.7 902 21.3 872.8 22.8C843.7 24.3 814.3 24.7 785.2 22.3C756 20 727 15 698 14.2C669 13.3 640 16.7 611 16.3C582 16 553 12 523.8 10.8C494.7 9.7 465.3 11.3 436.2 11.8C407 12.3 378 11.7 349 13.8C320 16 291 21 262 20.8C233 20.7 204 15.3 174.8 15.2C145.7 15 116.3 20 87.2 22.2C58 24.3 29 23.7 14.5 23.3L0 23Z" fill="#b3bac8"></path><path d="M0 71L14.5 67.8C29 64.7 58 58.3 87.2 56.8C116.3 55.3 145.7 58.7 174.8 60.3C204 62 233 62 262 64C291 66 320 70 349 71.3C378 72.7 407 71.3 436.2 67.5C465.3 63.7 494.7 57.3 523.8 55.2C553 53 582 55 611 54.3C640 53.7 669 50.3 698 52.5C727 54.7 756 62.3 785.2 64.5C814.3 66.7 843.7 63.3 872.8 63.3C902 63.3 931 66.7 945.5 68.3L960 70L960 51L945.5 49.5C931 48 902 45 872.8 46.8C843.7 48.7 814.3 55.3 785.2 54C756 52.7 727 43.3 698 41.2C669 39 640 44 611 44.5C582 45 553 41 523.8 42C494.7 43 465.3 49 436.2 53.3C407 57.7 378 60.3 349 60.2C320 60 291 57 262 53.8C233 50.7 204 47.3 174.8 45.7C145.7 44 116.3 44 87.2 46.5C58 49 29 54 14.5 56.5L0 59Z" fill="#8f97a7"></path><path d="M0 93L14.5 91.2C29 89.3 58 85.7 87.2 83.7C116.3 81.7 145.7 81.3 174.8 81.3C204 81.3 233 81.7 262 83.8C291 86 320 90 349 91.8C378 93.7 407 93.3 436.2 91.5C465.3 89.7 494.7 86.3 523.8 84.2C553 82 582 81 611 82.7C640 84.3 669 88.7 698 90.8C727 93 756 93 785.2 93.2C814.3 93.3 843.7 93.7 872.8 93.8C902 94 931 94 945.5 94L960 94L960 68L945.5 66.3C931 64.7 902 61.3 872.8 61.3C843.7 61.3 814.3 64.7 785.2 62.5C756 60.3 727 52.7 698 50.5C669 48.3 640 51.7 611 52.3C582 53 553 51 523.8 53.2C494.7 55.3 465.3 61.7 436.2 65.5C407 69.3 378 70.7 349 69.3C320 68 291 64 262 62C233 60 204 60 174.8 58.3C145.7 56.7 116.3 53.3 87.2 54.8C58 56.3 29 62.7 14.5 65.8L0 69Z" fill="#6d7688"></path><path d="M0 101L14.5 101C29 101 58 101 87.2 101C116.3 101 145.7 101 174.8 101C204 101 233 101 262 101C291 101 320 101 349 101C378 101 407 101 436.2 101C465.3 101 494.7 101 523.8 101C553 101 582 101 611 101C640 101 669 101 698 101C727 101 756 101 785.2 101C814.3 101 843.7 101 872.8 101C902 101 931 101 945.5 101L960 101L960 92L945.5 92C931 92 902 92 872.8 91.8C843.7 91.7 814.3 91.3 785.2 91.2C756 91 727 91 698 88.8C669 86.7 640 82.3 611 80.7C582 79 553 80 523.8 82.2C494.7 84.3 465.3 87.7 436.2 89.5C407 91.3 378 91.7 349 89.8C320 88 291 84 262 81.8C233 79.7 204 79.3 174.8 79.3C145.7 79.3 116.3 79.7 87.2 81.7C58 83.7 29 87.3 14.5 89.2L0 91Z" fill="#4c566a"></path></svg>