<svg id="visual" viewBox="0 0 960 300" width="960" height="300" xmlns="http://www.w3.org/2000/svg" xmlns:xlink="http://www.w3.org/1999/xlink" version="1.1"><path d="M0 46L14.5 47C29 48 58 50 87.2 50.5C116.3 51 145.7 50 174.8 47C204 44 233 39 262 35.5C291 32 320 30 349 28C378 26 407 24 436.2 24C465.3 24 494.7 26 523.8 29.5C553 33 582 38 611 41.5C640 45 669 47 698 45C727 43 756 37 785.2 36.5C814.3 36 843.7 41 872.8 42C902 43 931 40 945.5 38.5L960 37L960 0L945.5 0C931 0 902 0 872.8 0C843.7 0 814.3 0 785.2 0C756 0 727 0 698 0C669 0 640 0 611 0C582 0 553 0 523.8 0C494.7 0 465.3 0 436.2 0C407 0 378 0 349 0C320 0 291 0 262 0C233 0 204 0 174.8 0C145.7 0 116.3 0 87.2 0C58 0 29 0 14.5 0L0 0Z" fill="#d8dee9"></path><path d="M0 82L14.5 87C29 92 58 102 87.2 103C116.3 104 145.7 96 174.8 100.5C204 105 233 122 262 119.5C291 117 320 95 349 92C378 89 407 105 436.2 109.5C465.3 114 494.7 107 523.8 113C553 119 582 138 611 144C640 150 669 143 698 138C727 133 756 130 785.2 137C814.3 144 843.7 161 872.8 168.5C902 176 931 174 945.5 173L960 172L960 35L945.5 36.5C931 38 902 41 872.8 40C843.7 39 814.3 34 785.2 34.5C756 35 727 41 698 43C669 45 640 43 611 39.5C582 36 553 31 523.8 27.5C494.7 24 465.3 22 436.2 22C407 22 378 24 349 26C320 28 291 30 262 33.5C233 37 204 42 174.8 45C145.7 48 116.3 49 87.2 48.5C58 48 29 46 14.5 45L0 44Z" fill="#b3bac8"></path><path d="M0 193L14.5 198.5C29 204 58 215 87.2 214.5C116.3 214 145.7 202 174.8 194C204 186 233 182 262 183.5C291 185 320 192 349 191.5C378 191 407 183 436.2 187.5C465.3 192 494.7 209 523.8 213C553 217 582 208 611 208.5C640 209 669 219 698 216.5C727 214 756 199 785.2 202C814.3 205 843.7 226 872.8 233.5C902 241 931 235 945.5 232L960 229L960 170L945.5 171C931 172 902 174 872.8 166.5C843.7 159 814.3 142 785.2 135C756 128 727 131 698 136C669 141 640 148 611 142C582 136 553 117 523.8 111C494.7 105 465.3 112 436.2 107.5C407 103 378 87 349 90C320 93 291 115 262 117.5C233 120 204 103 174.8 98.5C145.7 94 116.3 102 87.2 101C58 100 29 90 14.5 85L0 80Z" fill="#8f97a7"></path><path d="M0 256L14.5 258.5C29 261 58 266 87.2 263.5C116.3 261 145.7 251 174.8 245.5C204 240 233 239 262 244C291 249 320 260 349 262C378 264 407 257 436.2 256.5C465.3 256 494.7 262 523.8 262.5C553 263 582 258 611 258C640 258 669 263 698 261C727 259 756 250 785.2 251.5C814.3 253 843.7 265 872.8 267.5C902 270 931 263 945.5 259.5L960 256L960 227L945.5 230C931 233 902 239 872.8 231.5C843.7 224 814.3 203 785.2 200C756 197 727 212 698 214.5C669 217 640 207 611 206.5C582 206 553 215 523.8 211C494.7 207 465.3 190 436.2 185.5C407 181 378 189 349 189.5C320 190 291 183 262 181.5C233 180 204 184 174.8 192C145.7 200 116.3 212 87.2 212.5C58 213 29 202 14.5 196.5L0 191Z" fill="#6d7688"></path><path d="M0 301L14.5 301C29 301 58 301 87.2 301C116.3 301 145.7 301 174.8 301C204 301 233 301 262 301C291 301 320 301 349 301C378 301 407 301 436.2 301C465.3 301 494.7 301 523.8 301C553 301 582 301 611 301C640 301 669 301 698 301C727 301 756 301 785.2 301C814.3 301 843.7 301 872.8 301C902 301 931 301 945.5 301L960 301L960 254L945.5 257.5C931 261 902 268 872.8 265.5C843.7 263 814.3 251 785.2 249.5C756 248 727 257 698 259C669 261 640 256 611 256C582 256 553 261 523.8 260.5C494.7 260 465.3 254 436.2 254.5C407 255 378 262 349 260C320 258 291 247 262 242C233 237 204 238 174.8 243.5C145.7 249 116.3 259 87.2 261.5C58 264 29 259 14.5 256.5L0 254Z" fill="#4c566a"></path></svg>