<svg id="visual" viewBox="0 0 900 300" width="900" height="300" xmlns="http://www.w3.org/2000/svg" xmlns:xlink="http://www.w3.org/1999/xlink" version="1.1"><path d="M0 82L13.7 78C27.3 74 54.7 66 82 63.5C109.3 61 136.7 64 163.8 65C191 66 218 65 245.2 63.5C272.3 62 299.7 60 327 57C354.3 54 381.7 50 409 50C436.3 50 463.7 54 491 59C518.3 64 545.7 70 573 69.5C600.3 69 627.7 62 654.8 55.5C682 49 709 43 736.2 38.5C763.3 34 790.7 31 818 32C845.3 33 872.7 38 886.3 40.5L900 43L900 0L886.3 0C872.7 0 845.3 0 818 0C790.7 0 763.3 0 736.2 0C709 0 682 0 654.8 0C627.7 0 600.3 0 573 0C545.7 0 518.3 0 491 0C463.7 0 436.3 0 409 0C381.7 0 354.3 0 327 0C299.7 0 272.3 0 245.2 0C218 0 191 0 163.8 0C136.7 0 109.3 0 82 0C54.7 0 27.3 0 13.7 0L0 0Z" fill="#4c566a"></path><path d="M0 112L13.7 111.5C27.3 111 54.7 110 82 113C109.3 116 136.7 123 163.8 125C191 127 218 124 245.2 118C272.3 112 299.7 103 327 99.5C354.3 96 381.7 98 409 97C436.3 96 463.7 92 491 96C518.3 100 545.7 112 573 116.5C600.3 121 627.7 118 654.8 108C682 98 709 81 736.2 74.5C763.3 68 790.7 72 818 76.5C845.3 81 872.7 86 886.3 88.5L900 91L900 41L886.3 38.5C872.7 36 845.3 31 818 30C790.7 29 763.3 32 736.2 36.5C709 41 682 47 654.8 53.5C627.7 60 600.3 67 573 67.5C545.7 68 518.3 62 491 57C463.7 52 436.3 48 409 48C381.7 48 354.3 52 327 55C299.7 58 272.3 60 245.2 61.5C218 63 191 64 163.8 63C136.7 62 109.3 59 82 61.5C54.7 64 27.3 72 13.7 76L0 80Z" fill="#6d7688"></path><path d="M0 166L13.7 165C27.3 164 54.7 162 82 164C109.3 166 136.7 172 163.8 174.5C191 177 218 176 245.2 171C272.3 166 299.7 157 327 161.5C354.3 166 381.7 184 409 197C436.3 210 463.7 218 491 219C518.3 220 545.7 214 573 213.5C600.3 213 627.7 218 654.8 216.5C682 215 709 207 736.2 207C763.3 207 790.7 215 818 208.5C845.3 202 872.7 181 886.3 170.5L900 160L900 89L886.3 86.5C872.7 84 845.3 79 818 74.5C790.7 70 763.3 66 736.2 72.5C709 79 682 96 654.8 106C627.7 116 600.3 119 573 114.5C545.7 110 518.3 98 491 94C463.7 90 436.3 94 409 95C381.7 96 354.3 94 327 97.5C299.7 101 272.3 110 245.2 116C218 122 191 125 163.8 123C136.7 121 109.3 114 82 111C54.7 108 27.3 109 13.7 109.5L0 110Z" fill="#8f97a7"></path><path d="M0 202L13.7 201.5C27.3 201 54.7 200 82 202C109.3 204 136.7 209 163.8 208.5C191 208 218 202 245.2 195.5C272.3 189 299.7 182 327 189.5C354.3 197 381.7 219 409 232.5C436.3 246 463.7 251 491 248.5C518.3 246 545.7 236 573 233.5C600.3 231 627.7 236 654.8 236.5C682 237 709 233 736.2 235C763.3 237 790.7 245 818 237.5C845.3 230 872.7 207 886.3 195.5L900 184L900 158L886.3 168.5C872.7 179 845.3 200 818 206.5C790.7 213 763.3 205 736.2 205C709 205 682 213 654.8 214.5C627.7 216 600.3 211 573 211.5C545.7 212 518.3 218 491 217C463.7 216 436.3 208 409 195C381.7 182 354.3 164 327 159.5C299.7 155 272.3 164 245.2 169C218 174 191 175 163.8 172.5C136.7 170 109.3 164 82 162C54.7 160 27.3 162 13.7 163L0 164Z" fill="#b3bac8"></path><path d="M0 301L13.7 301C27.3 301 54.7 301 82 301C109.3 301 136.7 301 163.8 301C191 301 218 301 245.2 301C272.3 301 299.7 301 327 301C354.3 301 381.7 301 409 301C436.3 301 463.7 301 491 301C518.3 301 545.7 301 573 301C600.3 301 627.7 301 654.8 301C682 301 709 301 736.2 301C763.3 301 790.7 301 818 301C845.3 301 872.7 301 886.3 301L900 301L900 182L886.3 193.5C872.7 205 845.3 228 818 235.5C790.7 243 763.3 235 736.2 233C709 231 682 235 654.8 234.5C627.7 234 600.3 229 573 231.5C545.7 234 518.3 244 491 246.5C463.7 249 436.3 244 409 230.5C381.7 217 354.3 195 327 187.5C299.7 180 272.3 187 245.2 193.5C218 200 191 206 163.8 206.5C136.7 207 109.3 202 82 200C54.7 198 27.3 199 13.7 199.5L0 200Z" fill="#d8dee9"></path></svg>